PathFileType        4      (X/Y/Z)      C:\Users\pc\Desktop\IMUTRC\Sujet_01\Sujet_01_Tpose.trc         
DataRate	CameraRate	NumFrames	NumMarkers	Units	OrigDataRate	OrigDataStartFrame	OrigNumFrames
60.0	60.0	4	64	mm	60.0	58	114
Frame#	Time	pHipOrigin			pRightASI			pLeftASI			pRightCSI			pLeftCSI			pRightIschialTub			pLeftIschialTub			pSacrum			pL5SpinalProcess			pL3SpinalProcess			pT12SpinalProcess			pIJ			pT4SpinalProcess			pT8SpinalProcess			pPX			pC7SpinalProcess			pTopOfHead			pRightAuricularis			pLeftAuricularis			pBackOfHead			pRightAcromion			pLeftAcromion			pRightArmLatEpicondyle			pRightArmMedEpicondyle			pLeftArmLatEpicondyle			pLeftArmMedEpicondyle			pRightUlnarStyloid			pRightRadialStyloid			pRightOlecranon			pLeftUlnarStyloid			pLeftRadialStyloid			pLeftOlecranon			pRightTopOfHand			pRightPinky			pRightBallHand			pLeftTopOfHand			pLeftPinky			pLeftBallHand			pRightGreaterTrochanter			pRightKneeLatEpicondyle			pRightKneeMedEpicondyle			pRightPatella			pLeftGreaterTrochanter			pLeftKneeLatEpicondyle			pLeftKneeMedEpicondyle			pLeftPatella			pRightTibialTub			pRightLatMalleolus			pRightMedMalleolus			pLeftTibialTub			pLeftLatMalleolus			pLeftMedMalleolus			pRightHeelFoot			pRightFirstMetatarsal			pRightFifthMetatarsal			pRightPivotFoot			pRightHeelCenter			pRightToe			pLeftHeelFoot			pLeftFirstMetatarsal			pLeftFifthMetatarsal			pLeftPivotFoot			pLeftHeelCenter			pLeftToe			
		X1	Y1	Z1	X2	Y2	Z2	X3	Y3	Z3	X4	Y4	Z4	X5	Y5	Z5	X6	Y6	Z6	X7	Y7	Z7	X8	Y8	Z8	X9	Y9	Z9	X10	Y10	Z10	X11	Y11	Z11	X12	Y12	Z12	X13	Y13	Z13	X14	Y14	Z14	X15	Y15	Z15	X16	Y16	Z16	X17	Y17	Z17	X18	Y18	Z18	X19	Y19	Z19	X20	Y20	Z20	X21	Y21	Z21	X22	Y22	Z22	X23	Y23	Z23	X24	Y24	Z24	X25	Y25	Z25	X26	Y26	Z26	X27	Y27	Z27	X28	Y28	Z28	X29	Y29	Z29	X30	Y30	Z30	X31	Y31	Z31	X32	Y32	Z32	X33	Y33	Z33	X34	Y34	Z34	X35	Y35	Z35	X36	Y36	Z36	X37	Y37	Z37	X38	Y38	Z38	X39	Y39	Z39	X40	Y40	Z40	X41	Y41	Z41	X42	Y42	Z42	X43	Y43	Z43	X44	Y44	Z44	X45	Y45	Z45	X46	Y46	Z46	X47	Y47	Z47	X48	Y48	Z48	X49	Y49	Z49	X50	Y50	Z50	X51	Y51	Z51	X52	Y52	Z52	X53	Y53	Z53	X54	Y54	Z54	X55	Y55	Z55	X56	Y56	Z56	X57	Y57	Z57	X58	Y58	Z58	X59	Y59	Z59	X60	Y60	Z60	X61	Y61	Z61	X62	Y62	Z62	X63	Y63	Z63	X64	Y64	Z64	
58	0.95	0.0	1249.97542	7.653891985579342E-14	28.182139999999983	1347.38347	131.7688200000001	71.30648000000001	1348.07699	-113.8003399999999	-15.131350000000012	1403.81079	101.82136000000008	20.30122000000001	1404.37822	-100.11907999999991	-53.022760000000005	1192.03497	42.55692000000006	-35.30647999999999	1192.28716	-58.381779999999935	-62.41681	1262.20659	-10.90717999999993	-39.4676	1352.6164	-6.872149999999922	-33.98249	1456.95965	-6.493869999999916	-35.81086	1552.41323	-7.754819999999909	111.71978	1741.0507	17.84238000000012	-25.21891	1730.08048	-8.133099999999898	-35.30648	1647.61463	-8.826619999999902	102.51488	1627.94388	17.716290000000114	-19.35552	1778.12251	-5.548159999999894	40.72854	2017.38694	8.57443000000013	44.070049999999995	1920.10499	70.04553000000011	41.10683000000001	1926.15752	-61.660239999999874	-9.14186	1921.9964	5.295970000000117	-27.99299000000002	1746.34668	173.6322200000001	24.96672000000002	1763.74773	-175.46058999999988	-91.67075000000004	1625.73722	373.7442900000001	-46.465850000000046	1596.48328	371.0963000000001	41.80035000000005	1652.97365	-393.7302799999999	75.27846000000004	1615.08223	-375.0052399999999	-76.66550000000007	1518.05247	561.1838600000001	-101.94746000000008	1551.27838	574.9281700000001	-57.68826000000004	1597.11376	362.0805400000001	97.78633000000008	1538.35369	-567.8668699999998	87.19439000000007	1575.92987	-588.1050499999999	61.91243000000004	1618.17155	-371.4115399999999	-187.75481000000008	1470.767	689.4850800000002	-118.46584000000009	1475.36946	648.1891100000001	-91.29246000000008	1517.54809	602.4167800000001	82.84413000000009	1510.48679	-739.9859499999999	100.93870000000008	1497.24686	-662.3747499999998	106.23467000000007	1534.88609	-606.0735299999999	-32.72154000000001	1219.90187	140.53239000000008	-50.374780000000015	876.35723	105.28896000000006	-30.704030000000003	876.67246	41.04378000000005	-3.90893000000001	876.16808	82.02451000000006	7.376530000000018	1219.46054	-142.54990999999993	-8.889669999999988	875.85285	-107.24342999999995	-1.2609499999999951	877.11379	-40.47635999999994	32.59544000000001	876.92465	-75.90892999999994	7.691769999999989	839.41152	86.37478000000006	-89.46409000000001	472.1611	94.82311000000001	-71.74781	471.08929	37.32399000000002	46.59194000000001	842.62693	-81.77232999999994	-27.740799999999982	473.98947	-136.18212999999997	-19.60769999999999	468.50436	-76.85463999999997	-116.13309	331.18737	47.348510000000005	63.23641999999999	335.03326	98.22767000000003	20.23817999999998	335.66373	175.27145000000002	64.18212999999999	335.85287	147.90892000000002	-78.43082000000001	329.86338	68.4063	128.30121999999997	341.02275	183.59369000000007	-60.147109999999984	330.43081	-93.05779	125.90542000000002	339.13133	-83.28545999999997	110.33274000000002	334.78107	-169.97546999999997	142.92819000000003	337.87039	-129.94044999999994	-17.52713999999999	329.73729	-100.68650999999998	215.05428000000003	343.98597	-143.18037999999996	
59	0.967	0.0	1249.97542	7.653891985579342E-14	28.245179999999984	1347.38347	131.7688200000001	71.24343000000002	1348.07699	-113.8003399999999	-15.068300000000013	1403.81079	101.82136000000008	20.30122000000001	1404.37822	-100.11907999999991	-53.022760000000005	1192.03497	42.61996000000006	-35.30647999999999	1192.28716	-58.381779999999935	-62.41681	1262.26964	-10.90717999999993	-39.4676	1352.6164	-6.872149999999922	-33.91944	1456.95965	-6.430819999999915	-35.74781	1552.41323	-7.62871999999991	111.84588	1740.98766	17.96848000000012	-25.09282	1730.08048	-7.943959999999897	-35.24343	1647.61463	-8.700519999999901	102.64098	1627.88083	17.842380000000112	-19.16637	1778.12251	-5.3590199999998935	40.79159	2017.38694	8.700520000000129	44.13309999999999	1920.16803	70.23467000000011	41.35902000000001	1926.09448	-61.408049999999875	-9.01576	1921.9964	5.422070000000117	-27.74080000000002	1746.28363	173.8213600000001	25.218910000000022	1763.81077	-175.27144999999987	-91.10332000000004	1625.54808	373.99648000000013	-45.898420000000044	1596.29414	371.2224000000001	42.05254000000005	1652.97365	-393.54113999999987	75.46760000000005	1615.01919	-374.75304999999986	-75.84588000000007	1517.73723	561.3099600000002	-101.06479000000007	1551.02619	575.1803600000001	-57.120840000000044	1596.92462	362.2696800000001	98.10157000000007	1538.29064	-567.6146799999999	87.57268000000008	1575.86682	-587.8528599999999	62.101570000000045	1618.1085	-371.1593499999999	-186.68300000000008	1470.45177	689.8633600000001	-117.45709000000008	1475.05422	648.4413000000001	-90.34676000000007	1517.2959	602.6059300000001	83.41155000000009	1510.42374	-739.7968099999999	101.38003000000009	1497.12077	-662.1225599999999	106.61295000000007	1534.82304	-605.8213399999999	-32.658490000000015	1219.90187	140.53239000000008	-50.374780000000015	876.35723	105.28896000000006	-30.767070000000004	876.67246	41.04378000000005	-3.90893000000001	876.16808	81.96147000000006	7.313480000000018	1219.46054	-142.54990999999993	-9.015759999999988	875.85285	-107.24342999999995	-1.2609499999999951	877.11379	-40.47635999999994	32.469350000000006	876.92465	-75.97197999999995	7.62871999999999	839.41152	86.31173000000005	-89.52714000000002	472.22415	94.82311000000001	-71.8739	471.08929	37.32399000000002	46.528890000000004	842.62693	-81.77232999999994	-27.866899999999983	473.98947	-136.18212999999997	-19.733799999999988	468.50436	-76.85463999999997	-116.25919	331.18737	47.348510000000005	63.11032999999998	335.03326	98.22767000000003	20.112079999999978	335.66373	175.27145000000002	64.05603999999998	335.85287	147.84588000000002	-78.55691000000002	329.92643	68.4063	128.17512999999997	341.02275	183.59369000000007	-60.210149999999985	330.43081	-93.05779	125.77933000000002	339.13133	-83.28545999999997	110.20665000000001	334.78107	-169.97546999999997	142.86514000000003	337.87039	-129.94044999999994	-17.65323999999999	329.73729	-100.68650999999998	214.92819000000003	343.98597	-143.18037999999996	
60	0.983	0.0	1249.97542	7.653891985579342E-14	28.37127999999998	1347.38347	131.7688200000001	71.18038000000001	1348.07699	-113.8633899999999	-15.005250000000013	1403.81079	101.88441000000009	20.23818000000001	1404.37822	-100.11907999999991	-52.959720000000004	1192.03497	42.61996000000006	-35.36952999999999	1192.28716	-58.381779999999935	-62.41681	1262.26964	-10.844129999999929	-39.4676	1352.67944	-6.809109999999922	-33.91944	1457.0227	-6.367779999999915	-35.68476	1552.41323	-7.565669999999909	112.03502	1740.92461	18.157620000000122	-24.96672	1730.08048	-7.754819999999897	-35.11734	1647.61463	-8.574429999999902	102.70402	1627.81778	17.968480000000113	-18.97723	1778.12251	-5.1698799999998934	40.91769	2017.38694	8.82662000000013	44.13309999999999	1920.16803	70.42381000000012	41.61121000000001	1926.03143	-61.21890999999987	-8.88967	1921.9964	5.548160000000117	-27.55166000000002	1746.15753	174.07355000000013	25.47110000000002	1763.81077	-175.0822999999999	-90.47285000000004	1625.29589	374.2486700000001	-45.26795000000004	1596.105	371.4115400000001	42.43082000000005	1652.9106	-393.2889499999999	75.78283000000005	1614.89309	-374.5008599999999	-74.90017000000007	1517.42199	561.4991000000001	-100.05604000000007	1550.71096	575.4325500000001	-56.55341000000004	1596.67243	362.3957800000001	98.54290000000007	1538.16455	-567.3624899999999	88.07705000000007	1575.80378	-587.6006699999999	62.41681000000004	1617.98241	-370.90715999999986	-185.48510000000007	1470.07348	690.2416500000002	-116.32224000000008	1474.73898	648.6934900000001	-89.33800000000006	1516.98066	602.7950700000001	84.10507000000008	1510.29765	-739.4815799999999	101.94746000000009	1496.99467	-661.8073199999999	107.05429000000007	1534.69695	-605.5060999999998	-32.53240000000002	1219.90187	140.59544000000008	-50.31173000000001	876.35723	105.28896000000006	-30.767070000000004	876.67246	41.04378000000005	-3.90893000000001	876.16808	81.96147000000006	7.1873900000000175	1219.46054	-142.54990999999993	-9.078809999999988	875.85285	-107.24342999999995	-1.3239899999999951	877.11379	-40.47635999999994	32.40630000000001	876.9877	-76.03501999999995	7.62871999999999	839.41152	86.31173000000005	-89.65324000000001	472.22415	94.82311000000001	-72.0	471.15234	37.32399000000002	46.402800000000006	842.62693	-81.83536999999994	-27.99298999999998	473.98947	-136.18212999999997	-19.79684999999999	468.50436	-76.85463999999997	-116.38528	331.25042	47.348510000000005	62.984239999999986	335.03326	98.22767000000003	20.04903999999998	335.66373	175.27145000000002	63.92993999999998	335.85287	147.90892000000002	-78.61996000000002	329.92643	68.4063	128.04902999999996	341.02275	183.59369000000007	-60.336249999999986	330.43081	-93.05779	125.71628000000001	339.13133	-83.22240999999997	110.14360000000002	334.78107	-169.97546999999997	142.73905000000002	337.87039	-129.87739999999994	-17.77932999999999	329.73729	-100.68650999999998	214.86514000000003	343.98597	-143.11732999999995	
61	1.0	0.0	1249.97542	7.653891985579342E-14	28.434319999999982	1347.38347	131.7688200000001	71.11733000000001	1348.07699	-113.8633899999999	-14.879160000000013	1403.81079	101.88441000000009	20.17513000000001	1404.37822	-100.05603999999991	-52.959720000000004	1192.03497	42.61996000000006	-35.43256999999999	1192.28716	-58.318739999999934	-62.41681	1262.26964	-10.844129999999929	-39.4676	1352.67944	-6.809109999999922	-33.85639	1457.0227	-6.304729999999916	-35.62171	1552.41323	-7.43957999999991	112.16112	1740.86156	18.40981000000012	-24.84063	1730.08048	-7.565669999999897	-34.99124	1647.67768	-8.448339999999902	102.83012	1627.75474	18.094570000000115	-18.85114	1778.12251	-4.980739999999893	41.04378	2017.38694	8.95271000000013	44.13309999999999	1920.23108	70.67600000000012	41.863400000000006	1925.96838	-61.02976999999987	-8.76357	1921.93336	5.6742600000001175	-27.29947000000002	1746.03144	174.2626900000001	25.78634000000002	1763.87382	-174.89315999999988	-89.90542000000005	1625.0437	374.5008600000001	-44.63748000000004	1595.85281	371.5376400000001	42.74606000000005	1652.84756	-393.0367599999999	76.03502000000005	1614.767	-374.18561999999986	-73.95446000000007	1517.10676	561.6882400000001	-99.11033000000008	1550.33267	575.6216900000001	-55.985990000000044	1596.42024	362.5849200000001	98.98423000000007	1538.03845	-567.0472599999999	88.58143000000007	1575.67768	-587.2854399999999	62.732050000000044	1617.91936	-370.6549699999999	-184.2241600000001	1469.6952	690.6199300000001	-115.18738000000009	1474.3607	648.8826300000001	-88.32924000000007	1516.60238	602.9842100000001	84.67250000000008	1510.17156	-739.2293899999999	102.45183000000009	1496.86858	-661.4920899999998	107.55866000000007	1534.57085	-605.1908599999999	-32.46935000000001	1219.83882	140.59544000000008	-50.374780000000015	876.35723	105.35201000000006	-30.830120000000004	876.67246	41.04378000000005	-3.90893000000001	876.16808	81.96147000000006	7.061300000000018	1219.46054	-142.54990999999993	-9.204899999999988	875.91589	-107.24342999999995	-1.3870399999999952	877.11379	-40.47635999999994	32.34326000000001	876.9877	-76.03501999999995	7.565669999999989	839.41152	86.31173000000005	-89.71628000000001	472.22415	94.82311000000001	-72.12609	471.15234	37.32399000000002	46.33975000000001	842.62693	-81.89841999999994	-28.119089999999982	473.98947	-136.18212999999997	-19.85988999999999	468.50436	-76.85463999999997	-116.51138	331.25042	47.348510000000005	62.858139999999985	335.03326	98.22767000000003	19.92293999999998	335.66373	175.27145000000002	63.803849999999976	335.85287	147.90892000000002	-78.74606000000001	329.92643	68.4063	127.98597999999997	341.02275	183.59369000000007	-60.39929999999998	330.49385	-93.05779	125.59019000000002	339.13133	-83.22240999999997	110.01751000000002	334.78107	-169.97546999999997	142.61295000000004	337.87039	-129.87739999999994	-17.842379999999988	329.73729	-100.68650999999998	214.73904000000002	343.98597	-143.11732999999995	
